<svg xmlns="http://www.w3.org/2000/svg" xml:space="preserve" width="100" height="100" viewBox="0 0 26.458 26.458"><path d="M14.39 17.727v-.661h7.672v1.323H14.39Zm-9.573-2.086c-.13-.458.355-.498 2.958-1.833 1.572-.806 2.91-1.427 2.91-1.508 0-.082-1.31-.795-2.91-1.584-2.437-1.203-3.147-1.579-2.941-2.041.14-.315.242-.508.298-.605.074-.128 1.934.834 3.97 1.854 2.652 1.329 3.7 1.985 3.7 2.319 0 .335-1.077 1.002-3.84 2.38-2.11 1.052-3.755 1.949-3.897 1.807-.05-.05-.146-.427-.248-.79z" style="fill:red"/></svg>