<?xml version="1.0" encoding="UTF-8" standalone="no"?>
<!-- Created with Inkscape (http://www.inkscape.org/) -->

<svg
   width="48"
   height="48"
   viewBox="0 0 12.7 12.7"
   version="1.1"
   id="svg1"
   xml:space="preserve"
   xmlns:xlink="http://www.w3.org/1999/xlink"
   xmlns="http://www.w3.org/2000/svg"
   xmlns:svg="http://www.w3.org/2000/svg"><defs
   id="defs1"><linearGradient
     id="linearGradient1"><stop
       style="stop-color:#008000;stop-opacity:1;"
       offset="0"
       id="stop1" /><stop
       style="stop-color:#00de00;stop-opacity:1;"
       offset="1"
       id="stop2" /></linearGradient><linearGradient
     xlink:href="#linearGradient1"
     id="linearGradient2"
     x1="1.0652605"
     y1="6.3499999"
     x2="11.634739"
     y2="6.3499999"
     gradientUnits="userSpaceOnUse" /></defs>
	 <path
   style="display:inline;fill:url(#linearGradient2);stroke:none;stroke-width:0.141192"
   d="m 3.8019461,11.435367 c -0.126283,-0.02944 -0.3220265,-0.190678 -0.3468938,-0.285751 -0.023222,-0.08876 -0.1942491,-0.162837 -0.3777058,-0.163599 -0.1421977,0 -0.8758113,-0.147682 -1.1250349,-0.225575 C 1.6363788,10.661701 1.2471238,10.481664 1.1678776,10.397646 1.0019094,10.22168 1.0353794,9.7914012 1.2820309,8.9300012 1.5545646,7.9781942 1.9513145,7.1775502 2.4431967,6.5867552 2.670778,6.3134146 3.1946593,5.8147311 3.4491869,5.6291544 3.5278389,5.5718135 3.5922002,5.5114588 3.5922002,5.4950391 3.5922002,5.4786351 3.4892345,5.3408584 3.36338,5.1888891 3.1958641,4.9866349 3.1345599,4.882492 3.1345599,4.8001989 c 0,-0.1393537 0.1900104,-0.5840418 0.517483,-1.2110999 C 4.215134,2.5108798 4.7742543,1.8204361 5.3020996,1.5515048 5.6115073,1.3938663 6.1347302,1.2385792 6.3571167,1.2383849 c 0.2050156,0 0.7157113,0.1478333 1.0296923,0.2984331 0.467235,0.2241226 1.122241,1.0111972 1.615439,1.9411826 0.314877,0.5937243 0.577424,1.1966061 0.577424,1.3259206 0,0.078755 -0.06307,0.1824361 -0.22882,0.376228 -0.125846,0.1471287 -0.22882,0.2849609 -0.22882,0.3063138 0,0.021347 0.121297,0.1340321 0.269553,0.2504164 0.87782,0.6890998 1.47628,1.5584078 1.889285,2.7443678 0.328871,0.944354 0.434693,1.6172168 0.291449,1.8531618 -0.141048,0.232325 -0.809051,0.469806 -1.738358,0.618 l -0.527515,0.08409 -0.0636,0.130227 c -0.04306,0.08816 -0.118566,0.156824 -0.233767,0.212559 l -0.170162,0.08233 -2.4803436,-0.0042 c -1.3641889,-0.0024 -2.5146662,-0.01233 -2.5566162,-0.02205 z M 9.005451,11.152494 c 0.06323,-0.05492 0.07948,-0.105348 0.07073,-0.219558 L 9.064841,10.78466 H 6.357132 3.649422 l -0.012704,0.08606 c -0.02135,0.144723 0.027633,0.257038 0.1371246,0.31449 0.090167,0.04733 0.4480008,0.05368 2.6269654,0.04666 2.440422,-0.0079 2.525247,-0.01029 2.604657,-0.07939 z M 3.4396456,10.741799 c 0,-0.07581 0.1085118,-0.194995 0.1775271,-0.194995 0.040433,0 0.051291,-0.104568 0.051291,-0.493995 V 9.5588002 H 3.5528223 c -0.1416119,0 -0.3429024,0.07742 -0.4134147,0.158995 -0.066099,0.07646 -0.1907919,0.07845 -0.2207678,0.0035 -0.028275,-0.07069 0.1437563,-0.249861 0.2992299,-0.311657 0.1673097,-0.06651 0.064432,-0.10576 -0.2788758,-0.10641 -0.2114902,0 -0.3038497,-0.01553 -0.3383661,-0.05546 -0.1474008,-0.170418 0.4183609,-0.234328 0.809998,-0.0915 0.1103423,0.04025 0.2134983,0.07318 0.22923,0.07319 0.015736,1.5e-5 0.028603,-0.08112 0.028603,-0.18028 0,-0.162975 -0.013387,-0.190885 -0.1392255,-0.290412 -0.076576,-0.06064 -0.2237645,-0.129638 -0.3270885,-0.153422 -0.2031484,-0.04677 -0.2710995,-0.1279 -0.1678042,-0.200377 0.074827,-0.05252 0.3312017,-0.01097 0.4706962,0.07635 0.046456,0.02907 0.1022289,0.05285 0.1239473,0.05285 0.025421,0 0.039531,-0.192172 0.039627,-0.539745 1.242e-4,-0.46989 0.0097,-0.554848 0.07424,-0.6563511 0.1139208,-0.1792679 0.2074275,-0.2101659 0.697978,-0.2306329 l 0.4481932,-0.0187 -0.2232689,-0.26195 C 4.5429536,6.6827082 4.2914953,6.3698368 4.1069581,6.1315112 3.9224197,5.8931869 3.7664789,5.6923391 3.7604249,5.6851893 3.7323955,5.6520775 3.2706846,6.0349595 2.9401371,6.3654259 2.3911127,6.9143112 2.0318775,7.4697402 1.7452498,8.2128922 1.3758231,9.1707182 1.1845806,10.063206 1.31353,10.227637 c 0.1261736,0.160889 0.9157396,0.416156 1.6112784,0.520936 0.4415343,0.06651 0.5148468,0.06554 0.5148468,-0.0067 z m 6.2661934,0.02139 C 10.488905,10.649631 11.2828,10.399588 11.398562,10.230069 11.60149,9.9328932 11.048899,8.0998392 10.495716,7.2351442 10.27614,6.8919152 10.061185,6.6288612 9.746215,6.3179392 9.446238,6.0218193 9.013994,5.6712996 8.968608,5.6873571 c -0.01689,0.00595 -0.22307,0.2578821 -0.458155,0.5597731 -0.235084,0.301891 -0.485981,0.611319 -0.557549,0.687604 -0.07156,0.07628 -0.119945,0.154501 -0.107501,0.173809 0.01243,0.01931 0.223722,0.03511 0.46952,0.03511 0.68878,0 0.730834,0.05043 0.730834,0.876421 0,0.302884 0.01029,0.550699 0.02272,0.550699 0.01243,0 0.07619,-0.03652 0.141544,-0.08119 0.162339,-0.110915 0.503133,-0.119507 0.503133,-0.01269 0,0.0541 -0.04387,0.08153 -0.186054,0.116334 -0.102326,0.02506 -0.2482,0.0937 -0.324162,0.152549 -0.125368,0.09715 -0.139163,0.126076 -0.149546,0.313631 -0.0063,0.113651 -0.0013,0.206612 0.01106,0.206612 0.01243,0 0.09474,-0.03587 0.183054,-0.07973 0.216227,-0.107396 0.785105,-0.14197 0.862546,-0.05244 0.09436,0.109091 -0.0075,0.160545 -0.314031,0.158651 -0.152548,-0.0013 -0.308101,0.0148 -0.345675,0.03497 -0.06109,0.03281 -0.05632,0.04145 0.0451,0.08177 0.156248,0.06209 0.328483,0.241148 0.30014,0.312013 -0.02569,0.06425 -0.122663,0.07643 -0.159035,0.01995 -0.04633,-0.07193 -0.322397,-0.182435 -0.455784,-0.182435 H 9.045779 l 2.88e-4,0.4848508 2.88e-4,0.484868 0.114167,0.06234 c 0.06845,0.03737 0.114167,0.09231 0.114167,0.137226 0,0.08811 0.04212,0.09155 0.431269,0.03513 z M 8.855067,9.0265302 v -1.520266 l -0.09361,-0.08983 -0.09361,-0.08982 H 6.3571085 4.0463656 l -0.099606,0.09557 -0.099606,0.09557 0.024983,0.901588 c 0.013742,0.495877 0.02501,1.177414 0.025065,1.514529 l 8.19e-5,0.6129218 H 6.3761759 8.855066 Z M 5.3276308,10.247615 C 5.2575438,10.06529 5.2022083,9.8368422 5.2183539,9.7964682 c 0.010521,-0.02636 0.1037588,-0.08286 0.2071342,-0.125534 0.1033764,-0.04267 0.1879548,-0.08589 0.1879548,-0.09604 0,-0.01007 -0.024491,-0.07469 -0.054434,-0.143449 -0.052124,-0.119691 -0.063858,-0.125455 -0.2764916,-0.13605 -0.2083703,-0.01029 -0.2220614,-0.01671 -0.2220614,-0.10252 0,-0.08544 0.014151,-0.09222 0.2141306,-0.102304 l 0.2141322,-0.01084 0.022333,-0.207678 c 0.024232,-0.225336 4.49e-4,-0.26341 -0.1645768,-0.263727 -0.075483,0 -0.1089354,0.03084 -0.1605673,0.148771 -0.046852,0.107017 -0.084321,0.145428 -0.1330443,0.136424 -0.1027338,-0.01898 -0.1012039,-0.108483 0.00573,-0.340643 0.095167,-0.206462 0.099701,-0.210264 0.2210889,-0.185564 0.3419081,0.06961 0.3438682,0.06914 0.480527,-0.112977 l 0.1277777,-0.170292 -0.086971,-0.178179 c -0.063872,-0.130835 -0.075702,-0.188991 -0.044531,-0.218894 0.064432,-0.06182 0.15521,-0.01058 0.2230819,0.126037 l 0.06099,0.122718 0.3241396,-0.0026 0.3241397,-0.0027 0.073365,-0.137211 c 0.04035,-0.07549 0.099237,-0.137226 0.130859,-0.137226 0.1004539,0 0.1080619,0.114418 0.018113,0.272429 l -0.087134,0.153049 0.1287964,0.169132 c 0.1205055,0.158233 0.1373885,0.167678 0.2622755,0.14667 0.261015,-0.0439 0.281587,-0.0363 0.371137,0.136961 0.160474,0.310481 0.03646,0.490168 -0.13385,0.193933 -0.07602,-0.132221 -0.100098,-0.149534 -0.172359,-0.123881 -0.0462,0.0164 -0.08257,0.05674 -0.08082,0.08966 0.0018,0.03291 0.006,0.133119 0.0096,0.222685 l 0.0064,0.162838 0.219287,0.01098 c 0.205431,0.01018 0.219286,0.01673 0.219286,0.102455 0,0.08582 -0.01369,0.09217 -0.222061,0.10252 -0.212639,0.01073 -0.224373,0.01638 -0.276492,0.136053 -0.07634,0.17534 -0.07242,0.185687 0.09488,0.249915 0.08212,0.03151 0.161601,0.07642 0.176633,0.09975 0.03661,0.05683 -0.05812,0.4267188 -0.122389,0.4778938 -0.06658,0.05303 -0.174687,-0.02732 -0.149013,-0.110743 0.0713,-0.2316588 0.06852,-0.2478128 -0.05086,-0.2952648 -0.106544,-0.04236 -0.1264192,-0.0378 -0.2410479,0.05494 -0.3345714,0.2706878 -0.7712128,0.2561258 -1.0564745,-0.03523 -0.0798,-0.0815 -0.094989,-0.08436 -0.2065496,-0.03894 -0.1135523,0.04624 -0.1204231,0.06009 -0.1204231,0.2429058 0,0.155506 -0.01325,0.19639 -0.06685,0.206624 -0.036772,0.0071 -0.075237,-0.009 -0.085482,-0.03565 z m 0.9255704,-0.9724138 -0.010521,-0.576343 -0.224844,-0.01124 c -0.1264059,-0.0062 -0.2428978,0.0062 -0.2660766,0.02843 -0.073817,0.07084 -0.044612,0.549938 0.045405,0.744907 0.092407,0.200112 0.284147,0.390486 0.3933132,0.390486 0.069528,0 0.072683,-0.02893 0.062712,-0.576341 z m 0.4582059,0.485696 C 6.9314619,9.5832302 7.089931,9.0254222 6.990227,8.7794362 6.950177,8.6806172 6.940424,8.6774312 6.7101245,8.6879532 L 6.47152,8.6989252 6.460999,9.2752622 c -0.00997,0.55033 -0.0071,0.576342 0.063818,0.576342 0.040869,0 0.1248352,-0.04079 0.186578,-0.09065 z m 0.1155602,-1.295068 c 0.038479,-0.02338 0.022743,-0.05713 -0.0667,-0.142948 -0.1602365,-0.153753 -0.353416,-0.211619 -0.533578,-0.159823 -0.1569242,0.04511 -0.3681468,0.234407 -0.3291377,0.294974 0.030365,0.04715 0.8533974,0.05406 0.9294212,0.0078 z M 6.5037539,7.1200062 6.7953905,7.0963462 7.168888,6.6717372 C 7.855071,5.891648 8.181606,5.4287173 8.32215,5.0367622 8.41696,4.7723385 8.41728,4.6165795 8.32325,4.4399106 8.26195,4.3246075 8.104714,4.1796228 8.040973,4.1796228 c -0.0087,0 -0.023,0.2017294 -0.03179,0.4482702 C 7.995523,5.0103587 7.979013,5.1056916 7.896519,5.2774129 7.762466,5.55659 7.17916,6.1710353 6.910041,6.3166267 6.7210973,6.4188302 6.6681308,6.4300922 6.3761267,6.4300922 5.926286,6.4300922 5.7223918,6.3309156 5.3073079,5.9101539 5.1358991,5.7364009 4.9552017,5.5353059 4.9057622,5.4632768 4.7710784,5.2670528 4.6981088,4.9418447 4.6981088,4.5378728 c 0,-0.400391 -0.022551,-0.4276933 -0.2209482,-0.2675075 -0.4469312,0.3608485 -0.1670282,1.0478884 0.9516864,2.3359409 0.2129832,0.245229 0.4135636,0.46646 0.4457306,0.491615 0.06584,0.05149 0.205928,0.05642 0.6291313,0.02209 z m 1.0005341,-0.0044 C 7.623427,7.0379162 9.116639,5.2086773 9.349475,4.8551979 9.399855,4.7787039 9.396615,4.7495712 9.316375,4.5573332 9.267463,4.4401831 9.093278,4.0808217 8.929308,3.7587952 8.36849,2.657423 7.804351,1.9576616 7.27651,1.7086595 6.9835693,1.570465 6.5212218,1.4351468 6.3419559,1.4351468 c -0.130094,0 -0.734791,0.1838056 -0.9478985,0.2881163 C 4.9453695,1.9429047 4.4094596,2.5970551 3.8846782,3.5656815 3.6698209,3.9622563 3.3249719,4.7109901 3.3255989,4.7795348 c 1.434e-4,0.022246 0.062656,0.1145496 0.1387829,0.2051305 0.076126,0.090559 0.3823677,0.4775382 0.6805351,0.8599338 0.2981685,0.3823983 0.6566825,0.8228841 0.7966962,0.9788631 l 0.2545726,0.283592 h 0.1918068 c 0.2267276,0 0.2354219,0.02342 -0.1561743,-0.420817 C 4.4158045,5.7605123 4.0784301,5.182206 4.0784301,4.7091923 4.0784301,4.212945 4.3509883,3.9830976 5.179129,3.7810059 5.9338248,3.5968395 6.7593564,3.6019313 7.512798,3.7953999 8.005407,3.921886 8.222699,4.0191171 8.375495,4.1814046 8.832296,4.6665631 8.564523,5.3737107 7.42799,6.6836452 c -0.198372,0.228629 -0.350288,0.425672 -0.337593,0.437857 0.03256,0.03124 0.364192,0.02656 0.413891,-0.0058 z M 7.901641,3.3584307 c 0,-0.1151709 0.06752,-0.1543181 0.142353,-0.082508 0.0745,0.071485 0.03661,0.1718417 -0.06488,0.1718417 -0.05671,0 -0.07748,-0.023952 -0.07748,-0.089329 z M 7.55841,2.8892756 C 7.376357,2.6292257 6.9044037,2.158713 6.7408135,2.0741821 6.5883096,1.9953747 6.5460823,1.9240806 6.6089027,1.8514435 6.6730207,1.7773155 6.9049391,1.9123135 7.214457,2.2039381 7.512418,2.4846825 7.867841,2.9552349 7.838102,3.0296022 7.797422,3.1313164 7.690208,3.0775322 7.558414,2.8892756 Z M 6.7865801,6.1469475 C 6.993899,6.0539045 7.596018,5.4475167 7.71338,5.2136021 7.78625,5.0683556 7.80348,4.962719 7.81748,4.5752581 L 7.83424,4.1109713 7.698969,4.0567363 C 7.387581,3.93189 6.9387821,3.8704144 6.3380369,3.8703047 5.7669071,3.8701911 5.5421493,3.8969659 5.0847071,4.0195048 l -0.2045677,0.05479 0.015012,0.4826259 c 0.018727,0.6020545 0.065389,0.7065146 0.5205139,1.1654229 0.5250861,0.5294398 0.8873604,0.6416313 1.3709158,0.4245923 z"
   id="path1" /></svg>
